<svg width="640" height="640" viewBox="0 0 640 640" fill="none" xmlns="http://www.w3.org/2000/svg">
  <rect width="640" height="640" rx="36" fill="#0F172A"/>
  <rect x="32" y="32" width="576" height="576" rx="28" fill="#F8FAFC"/>
  <rect x="76" y="76" width="140" height="140" rx="16" fill="#0F172A"/>
  <rect x="104" y="104" width="84" height="84" rx="10" fill="#F8FAFC"/>
  <rect x="424" y="76" width="140" height="140" rx="16" fill="#0F172A"/>
  <rect x="452" y="104" width="84" height="84" rx="10" fill="#F8FAFC"/>
  <rect x="76" y="424" width="140" height="140" rx="16" fill="#0F172A"/>
  <rect x="104" y="452" width="84" height="84" rx="10" fill="#F8FAFC"/>
  <rect x="276" y="82" width="28" height="28" rx="6" fill="#0F172A"/>
  <rect x="324" y="82" width="28" height="28" rx="6" fill="#0F172A"/>
  <rect x="324" y="130" width="28" height="28" rx="6" fill="#0F172A"/>
  <rect x="276" y="178" width="28" height="28" rx="6" fill="#0F172A"/>
  <rect x="324" y="178" width="28" height="28" rx="6" fill="#0F172A"/>
  <rect x="372" y="178" width="28" height="28" rx="6" fill="#0F172A"/>
  <rect x="276" y="276" width="28" height="28" rx="6" fill="#0F172A"/>
  <rect x="324" y="276" width="28" height="28" rx="6" fill="#0F172A"/>
  <rect x="372" y="276" width="28" height="28" rx="6" fill="#0F172A"/>
  <rect x="420" y="276" width="28" height="28" rx="6" fill="#0F172A"/>
  <rect x="468" y="276" width="28" height="28" rx="6" fill="#0F172A"/>
  <rect x="516" y="276" width="28" height="28" rx="6" fill="#0F172A"/>
  <rect x="228" y="324" width="28" height="28" rx="6" fill="#0F172A"/>
  <rect x="276" y="324" width="28" height="28" rx="6" fill="#0F172A"/>
  <rect x="372" y="324" width="28" height="28" rx="6" fill="#0F172A"/>
  <rect x="468" y="324" width="28" height="28" rx="6" fill="#0F172A"/>
  <rect x="516" y="324" width="28" height="28" rx="6" fill="#0F172A"/>
  <rect x="228" y="372" width="28" height="28" rx="6" fill="#0F172A"/>
  <rect x="324" y="372" width="28" height="28" rx="6" fill="#0F172A"/>
  <rect x="420" y="372" width="28" height="28" rx="6" fill="#0F172A"/>
  <rect x="468" y="372" width="28" height="28" rx="6" fill="#0F172A"/>
  <rect x="516" y="372" width="28" height="28" rx="6" fill="#0F172A"/>
  <rect x="276" y="420" width="28" height="28" rx="6" fill="#0F172A"/>
  <rect x="324" y="420" width="28" height="28" rx="6" fill="#0F172A"/>
  <rect x="372" y="420" width="28" height="28" rx="6" fill="#0F172A"/>
  <rect x="420" y="420" width="28" height="28" rx="6" fill="#0F172A"/>
  <rect x="516" y="420" width="28" height="28" rx="6" fill="#0F172A"/>
  <rect x="276" y="468" width="28" height="28" rx="6" fill="#0F172A"/>
  <rect x="372" y="468" width="28" height="28" rx="6" fill="#0F172A"/>
  <rect x="420" y="468" width="28" height="28" rx="6" fill="#0F172A"/>
  <rect x="468" y="468" width="28" height="28" rx="6" fill="#0F172A"/>
  <rect x="516" y="468" width="28" height="28" rx="6" fill="#0F172A"/>
  <text x="320" y="600" text-anchor="middle" fill="#0F172A" font-family="Arial, sans-serif" font-size="26">Replace with your real WeChat QR</text>
</svg>